<mxfile host="Electron" modified="2024-03-24T11:51:40.789Z" agent="Mozilla/5.0 (Windows NT 10.0; Win64; x64) AppleWebKit/537.36 (KHTML, like Gecko) draw.io/24.0.4 Chrome/120.0.6099.109 Electron/28.1.0 Safari/537.36" etag="CROSy3Typ6WsOSxFFg-7" version="24.0.4" type="device">
  <diagram name="第 1 页" id="K88CtM9ZGQlM4K4pyGzZ">
    <mxGraphModel dx="1114" dy="777" grid="1" gridSize="10" guides="1" tooltips="1" connect="1" arrows="1" fold="1" page="1" pageScale="1" pageWidth="827" pageHeight="1169" math="0" shadow="0">
      <root>
        <mxCell id="0" />
        <mxCell id="1" parent="0" />
        <mxCell id="_TJkN6-oTygLcxhfRbeR-1" value="" style="rounded=0;whiteSpace=wrap;html=1;fillColor=#cce5ff;strokeColor=#36393d;shadow=0;glass=0;strokeWidth=0;horizontal=0;" parent="1" vertex="1">
          <mxGeometry x="110" y="140" width="510" height="510" as="geometry" />
        </mxCell>
        <mxCell id="_TJkN6-oTygLcxhfRbeR-8" value="&lt;p style=&quot;line-height: 130%;&quot;&gt;&lt;/p&gt;&lt;h3 style=&quot;text-align: center;&quot;&gt;&lt;/h3&gt;&lt;br&gt;&lt;p&gt;&lt;/p&gt;" style="rounded=0;whiteSpace=wrap;html=1;fillColor=#dae8fc;strokeColor=#6c8ebf;strokeWidth=0;align=left;" parent="1" vertex="1">
          <mxGeometry x="280" y="260" width="180" height="240" as="geometry" />
        </mxCell>
        <mxCell id="_TJkN6-oTygLcxhfRbeR-22" value="&lt;h2&gt;&lt;font style=&quot;font-size: 20px;&quot;&gt;课程管理&lt;/font&gt;&lt;/h2&gt;" style="text;html=1;align=center;verticalAlign=middle;resizable=0;points=[];autosize=1;strokeColor=none;fillColor=none;" parent="1" vertex="1">
          <mxGeometry x="320" y="245" width="100" height="70" as="geometry" />
        </mxCell>
        <mxCell id="_TJkN6-oTygLcxhfRbeR-24" value="&lt;span style=&quot;font-size: 18px;&quot;&gt;作业评分&lt;/span&gt;" style="rounded=0;whiteSpace=wrap;html=1;fillColor=#fad7ac;strokeColor=#b46504;strokeWidth=0;align=center;" parent="1" vertex="1">
          <mxGeometry x="290" y="350" width="160" height="40" as="geometry" />
        </mxCell>
        <mxCell id="_TJkN6-oTygLcxhfRbeR-25" value="&lt;font style=&quot;font-size: 18px;&quot;&gt;发布课程信息&lt;/font&gt;" style="rounded=0;whiteSpace=wrap;html=1;fillColor=#b1ddf0;strokeColor=#10739e;strokeWidth=0;" parent="1" vertex="1">
          <mxGeometry x="290" y="300" width="160" height="40" as="geometry" />
        </mxCell>
        <mxCell id="_TJkN6-oTygLcxhfRbeR-26" value="&lt;font style=&quot;font-size: 18px;&quot;&gt;实时反馈&lt;/font&gt;" style="rounded=0;whiteSpace=wrap;html=1;fillColor=#fad9d5;strokeColor=#ae4132;strokeWidth=0;align=center;" parent="1" vertex="1">
          <mxGeometry x="290" y="400" width="160" height="40" as="geometry" />
        </mxCell>
        <mxCell id="_TJkN6-oTygLcxhfRbeR-27" value="&lt;p style=&quot;line-height: 130%;&quot;&gt;&lt;/p&gt;&lt;h3 style=&quot;text-align: center;&quot;&gt;&lt;/h3&gt;&lt;br&gt;&lt;p&gt;&lt;/p&gt;" style="rounded=0;whiteSpace=wrap;html=1;fillColor=#dae8fc;strokeColor=#6c8ebf;strokeWidth=0;align=left;" parent="1" vertex="1">
          <mxGeometry x="396.13" y="552.5" width="90" height="55" as="geometry" />
        </mxCell>
        <mxCell id="_TJkN6-oTygLcxhfRbeR-39" value="&lt;p style=&quot;line-height: 130%;&quot;&gt;&lt;/p&gt;&lt;h3 style=&quot;text-align: center;&quot;&gt;&lt;/h3&gt;&lt;br&gt;&lt;p&gt;&lt;/p&gt;" style="rounded=0;whiteSpace=wrap;html=1;fillColor=#dae8fc;strokeColor=#6c8ebf;strokeWidth=0;align=left;" parent="1" vertex="1">
          <mxGeometry x="140" y="265" width="70" height="230" as="geometry" />
        </mxCell>
        <mxCell id="_TJkN6-oTygLcxhfRbeR-46" value="&lt;font style=&quot;font-size: 18px;&quot;&gt;AI&lt;/font&gt;&lt;div&gt;&lt;font style=&quot;font-size: 18px;&quot;&gt;赋&lt;/font&gt;&lt;/div&gt;&lt;div&gt;&lt;font style=&quot;font-size: 18px;&quot;&gt;能&lt;/font&gt;&lt;/div&gt;&lt;div&gt;&lt;font style=&quot;font-size: 18px;&quot;&gt;个&lt;/font&gt;&lt;/div&gt;&lt;div&gt;&lt;font style=&quot;font-size: 18px;&quot;&gt;性&lt;/font&gt;&lt;/div&gt;&lt;div&gt;&lt;font style=&quot;font-size: 18px;&quot;&gt;化&lt;/font&gt;&lt;/div&gt;&lt;div&gt;&lt;font style=&quot;font-size: 18px;&quot;&gt;学&lt;/font&gt;&lt;/div&gt;&lt;div&gt;&lt;font style=&quot;font-size: 18px;&quot;&gt;习&lt;/font&gt;&lt;/div&gt;" style="rounded=0;whiteSpace=wrap;html=1;fillColor=#e1d5e7;strokeColor=#9673a6;strokeWidth=0;" parent="1" vertex="1">
          <mxGeometry x="150" y="277.5" width="50" height="208" as="geometry" />
        </mxCell>
        <mxCell id="_TJkN6-oTygLcxhfRbeR-49" style="edgeStyle=orthogonalEdgeStyle;rounded=0;orthogonalLoop=1;jettySize=auto;html=1;exitX=0.5;exitY=1;exitDx=0;exitDy=0;" parent="1" edge="1">
          <mxGeometry relative="1" as="geometry">
            <mxPoint x="601.25" y="583.4300000000001" as="sourcePoint" />
            <mxPoint x="601.25" y="583.4300000000001" as="targetPoint" />
          </mxGeometry>
        </mxCell>
        <mxCell id="_TJkN6-oTygLcxhfRbeR-50" style="edgeStyle=orthogonalEdgeStyle;rounded=0;orthogonalLoop=1;jettySize=auto;html=1;exitX=0.5;exitY=1;exitDx=0;exitDy=0;" parent="1" edge="1">
          <mxGeometry relative="1" as="geometry">
            <mxPoint x="601.25" y="583.4300000000001" as="sourcePoint" />
            <mxPoint x="601.25" y="583.4300000000001" as="targetPoint" />
          </mxGeometry>
        </mxCell>
        <mxCell id="9ppd9D-iTVlu-JKmxTXz-1" value="&lt;font style=&quot;font-size: 18px;&quot;&gt;深度互动&lt;/font&gt;" style="rounded=0;whiteSpace=wrap;html=1;fillColor=#d5e8d4;strokeColor=#82b366;strokeWidth=0;align=center;" vertex="1" parent="1">
          <mxGeometry x="288.75" y="450" width="160" height="40" as="geometry" />
        </mxCell>
        <mxCell id="9ppd9D-iTVlu-JKmxTXz-5" value="&lt;font style=&quot;font-size: 20px;&quot;&gt;老师&lt;/font&gt;" style="rounded=0;whiteSpace=wrap;html=1;fillColor=#b1ddf0;strokeColor=#10739e;strokeWidth=0;" vertex="1" parent="1">
          <mxGeometry x="404.88" y="560" width="72" height="40" as="geometry" />
        </mxCell>
        <mxCell id="9ppd9D-iTVlu-JKmxTXz-10" value="&lt;p style=&quot;line-height: 130%;&quot;&gt;&lt;/p&gt;&lt;h3 style=&quot;text-align: center;&quot;&gt;&lt;/h3&gt;&lt;br&gt;&lt;p&gt;&lt;/p&gt;" style="rounded=0;whiteSpace=wrap;html=1;fillColor=#dae8fc;strokeColor=#6c8ebf;strokeWidth=0;align=left;" vertex="1" parent="1">
          <mxGeometry x="520" y="265" width="70" height="230" as="geometry" />
        </mxCell>
        <mxCell id="9ppd9D-iTVlu-JKmxTXz-11" value="&lt;font style=&quot;font-size: 18px;&quot;&gt;知&lt;/font&gt;&lt;div&gt;&lt;font style=&quot;font-size: 18px;&quot;&gt;识&lt;/font&gt;&lt;/div&gt;&lt;div&gt;&lt;font style=&quot;font-size: 18px;&quot;&gt;更&lt;/font&gt;&lt;/div&gt;&lt;div&gt;&lt;font style=&quot;font-size: 18px;&quot;&gt;新&lt;/font&gt;&lt;/div&gt;&lt;div&gt;&lt;font style=&quot;font-size: 18px;&quot;&gt;与&lt;/font&gt;&lt;/div&gt;&lt;div&gt;&lt;font style=&quot;font-size: 18px;&quot;&gt;传&lt;/font&gt;&lt;/div&gt;&lt;div&gt;&lt;font style=&quot;font-size: 18px;&quot;&gt;递&lt;/font&gt;&lt;/div&gt;" style="rounded=0;whiteSpace=wrap;html=1;fillColor=#e1d5e7;strokeColor=#9673a6;strokeWidth=0;" vertex="1" parent="1">
          <mxGeometry x="533.13" y="277.5" width="43.75" height="208" as="geometry" />
        </mxCell>
        <mxCell id="9ppd9D-iTVlu-JKmxTXz-12" value="&lt;p style=&quot;line-height: 130%;&quot;&gt;&lt;/p&gt;&lt;h3 style=&quot;text-align: center;&quot;&gt;&lt;/h3&gt;&lt;br&gt;&lt;p&gt;&lt;/p&gt;" style="rounded=0;whiteSpace=wrap;html=1;fillColor=#dae8fc;strokeColor=#6c8ebf;strokeWidth=0;align=left;" vertex="1" parent="1">
          <mxGeometry x="253.88" y="552.5" width="90" height="55" as="geometry" />
        </mxCell>
        <mxCell id="9ppd9D-iTVlu-JKmxTXz-13" style="edgeStyle=orthogonalEdgeStyle;rounded=0;orthogonalLoop=1;jettySize=auto;html=1;exitX=0.5;exitY=1;exitDx=0;exitDy=0;" edge="1" parent="1">
          <mxGeometry relative="1" as="geometry">
            <mxPoint x="459" y="583.4300000000001" as="sourcePoint" />
            <mxPoint x="459" y="583.4300000000001" as="targetPoint" />
          </mxGeometry>
        </mxCell>
        <mxCell id="9ppd9D-iTVlu-JKmxTXz-14" style="edgeStyle=orthogonalEdgeStyle;rounded=0;orthogonalLoop=1;jettySize=auto;html=1;exitX=0.5;exitY=1;exitDx=0;exitDy=0;" edge="1" parent="1">
          <mxGeometry relative="1" as="geometry">
            <mxPoint x="459" y="583.4300000000001" as="sourcePoint" />
            <mxPoint x="459" y="583.4300000000001" as="targetPoint" />
          </mxGeometry>
        </mxCell>
        <mxCell id="9ppd9D-iTVlu-JKmxTXz-15" value="&lt;font style=&quot;font-size: 20px;&quot;&gt;学生&lt;/font&gt;" style="rounded=0;whiteSpace=wrap;html=1;fillColor=#b1ddf0;strokeColor=#10739e;strokeWidth=0;" vertex="1" parent="1">
          <mxGeometry x="262.88" y="560" width="72" height="40" as="geometry" />
        </mxCell>
        <mxCell id="9ppd9D-iTVlu-JKmxTXz-16" value="" style="swimlane;startSize=0;dashed=1;strokeColor=#0066CC;" vertex="1" parent="1">
          <mxGeometry x="240" y="540" width="260" height="80" as="geometry" />
        </mxCell>
        <mxCell id="9ppd9D-iTVlu-JKmxTXz-19" value="&lt;p style=&quot;line-height: 130%;&quot;&gt;&lt;/p&gt;&lt;h3 style=&quot;text-align: center;&quot;&gt;&lt;/h3&gt;&lt;br&gt;&lt;p&gt;&lt;/p&gt;" style="rounded=0;whiteSpace=wrap;html=1;fillColor=#dae8fc;strokeColor=#6c8ebf;strokeWidth=0;align=left;" vertex="1" parent="1">
          <mxGeometry x="280" y="160" width="180" height="55" as="geometry" />
        </mxCell>
        <mxCell id="9ppd9D-iTVlu-JKmxTXz-20" style="edgeStyle=orthogonalEdgeStyle;rounded=0;orthogonalLoop=1;jettySize=auto;html=1;exitX=0.5;exitY=1;exitDx=0;exitDy=0;" edge="1" parent="1">
          <mxGeometry relative="1" as="geometry">
            <mxPoint x="531.25" y="230.43000000000006" as="sourcePoint" />
            <mxPoint x="531.25" y="230.43000000000006" as="targetPoint" />
          </mxGeometry>
        </mxCell>
        <mxCell id="9ppd9D-iTVlu-JKmxTXz-21" style="edgeStyle=orthogonalEdgeStyle;rounded=0;orthogonalLoop=1;jettySize=auto;html=1;exitX=0.5;exitY=1;exitDx=0;exitDy=0;" edge="1" parent="1">
          <mxGeometry relative="1" as="geometry">
            <mxPoint x="531.25" y="230.43000000000006" as="sourcePoint" />
            <mxPoint x="531.25" y="230.43000000000006" as="targetPoint" />
          </mxGeometry>
        </mxCell>
        <mxCell id="9ppd9D-iTVlu-JKmxTXz-22" value="&lt;font style=&quot;font-size: 20px;&quot;&gt;平台搭建&lt;/font&gt;" style="rounded=0;whiteSpace=wrap;html=1;fillColor=#b1ddf0;strokeColor=#10739e;strokeWidth=0;" vertex="1" parent="1">
          <mxGeometry x="290" y="167.5" width="160" height="40" as="geometry" />
        </mxCell>
        <mxCell id="9ppd9D-iTVlu-JKmxTXz-29" value="" style="shape=flexArrow;endArrow=classic;html=1;rounded=0;exitX=0.5;exitY=1;exitDx=0;exitDy=0;entryX=0.5;entryY=0;entryDx=0;entryDy=0;strokeColor=#004C99;" edge="1" parent="1" source="_TJkN6-oTygLcxhfRbeR-8" target="9ppd9D-iTVlu-JKmxTXz-16">
          <mxGeometry width="50" height="50" relative="1" as="geometry">
            <mxPoint x="460" y="460" as="sourcePoint" />
            <mxPoint x="510" y="410" as="targetPoint" />
          </mxGeometry>
        </mxCell>
        <mxCell id="9ppd9D-iTVlu-JKmxTXz-30" value="" style="shape=flexArrow;endArrow=classic;html=1;rounded=0;exitX=0.5;exitY=1;exitDx=0;exitDy=0;strokeColor=#004C99;" edge="1" parent="1" source="9ppd9D-iTVlu-JKmxTXz-19">
          <mxGeometry width="50" height="50" relative="1" as="geometry">
            <mxPoint x="460" y="460" as="sourcePoint" />
            <mxPoint x="370" y="260" as="targetPoint" />
          </mxGeometry>
        </mxCell>
        <mxCell id="9ppd9D-iTVlu-JKmxTXz-33" value="" style="shape=flexArrow;endArrow=classic;html=1;rounded=0;exitX=1;exitY=0.5;exitDx=0;exitDy=0;entryX=0;entryY=0.5;entryDx=0;entryDy=0;strokeColor=#004C99;" edge="1" parent="1" source="_TJkN6-oTygLcxhfRbeR-39" target="_TJkN6-oTygLcxhfRbeR-8">
          <mxGeometry width="50" height="50" relative="1" as="geometry">
            <mxPoint x="460" y="460" as="sourcePoint" />
            <mxPoint x="510" y="410" as="targetPoint" />
          </mxGeometry>
        </mxCell>
        <mxCell id="9ppd9D-iTVlu-JKmxTXz-34" value="" style="shape=flexArrow;endArrow=classic;html=1;rounded=0;exitX=1;exitY=0.5;exitDx=0;exitDy=0;entryX=0;entryY=0.5;entryDx=0;entryDy=0;strokeColor=#004C99;" edge="1" parent="1" source="_TJkN6-oTygLcxhfRbeR-8" target="9ppd9D-iTVlu-JKmxTXz-10">
          <mxGeometry width="50" height="50" relative="1" as="geometry">
            <mxPoint x="460" y="460" as="sourcePoint" />
            <mxPoint x="510" y="410" as="targetPoint" />
          </mxGeometry>
        </mxCell>
      </root>
    </mxGraphModel>
  </diagram>
</mxfile>
